# xmcd
#
# Track frame offsets: 
#        150
#        15513
#        30841
#        46537
#        64839
#        74231
#        97665
#        116868
#        136977
#        151122
#
# Disc length: 2324 seconds
#
# Revision: 0
# Processed by: cddbd v1.5.2PL0 Copyright (c) Steve Scherf et al.
# Submitted via: ExactAudioCopy v0.95b3
#
DISCID=7509120a
DTITLE=Jenny and the Skylights - The Mannequin Factory
DYEAR=2006
DGENRE=Blues
TTITLE0=Pop my cork
TTITLE1=Get up get out
TTITLE2=Home county
TTITLE3=Happy ghosts
TTITLE4=Simon's mannequin
TTITLE5=Draw me
TTITLE6=Your smile
TTITLE7=Lost at sea
TTITLE8=I believed you
TTITLE9=Look at us now
EXTD=
EXTT0=
EXTT1=
EXTT2=
EXTT3=
EXTT4=
EXTT5=
EXTT6=
EXTT7=
EXTT8=
EXTT9=
PLAYORDER=
